<mxfile host="app.diagrams.net" modified="2023-08-11T01:03:24.677Z" agent="Mozilla/5.0 (Windows NT 10.0; Win64; x64) AppleWebKit/537.36 (KHTML, like Gecko) Chrome/115.0.0.0 Safari/537.36" etag="u25E15gZ_P7ummjr5gwj" version="21.6.7" type="device">
  <diagram name="Page-1" id="9ozzgX0_IqdMHSGriDLk">
    <mxGraphModel dx="2744" dy="989" grid="1" gridSize="10" guides="1" tooltips="1" connect="1" arrows="1" fold="1" page="1" pageScale="1" pageWidth="850" pageHeight="1100" math="0" shadow="0">
      <root>
        <mxCell id="0" />
        <mxCell id="1" parent="0" />
        <mxCell id="gH9Sfeu3jcGFy_Y4X0_w-5" style="edgeStyle=orthogonalEdgeStyle;rounded=0;orthogonalLoop=1;jettySize=auto;html=1;exitX=0.5;exitY=0;exitDx=0;exitDy=0;entryX=0.5;entryY=1;entryDx=0;entryDy=0;" edge="1" parent="1" source="gH9Sfeu3jcGFy_Y4X0_w-1" target="gH9Sfeu3jcGFy_Y4X0_w-2">
          <mxGeometry relative="1" as="geometry" />
        </mxCell>
        <mxCell id="gH9Sfeu3jcGFy_Y4X0_w-10" style="edgeStyle=orthogonalEdgeStyle;rounded=0;orthogonalLoop=1;jettySize=auto;html=1;exitX=1;exitY=0.5;exitDx=0;exitDy=0;" edge="1" parent="1" source="gH9Sfeu3jcGFy_Y4X0_w-1" target="gH9Sfeu3jcGFy_Y4X0_w-9">
          <mxGeometry relative="1" as="geometry" />
        </mxCell>
        <mxCell id="gH9Sfeu3jcGFy_Y4X0_w-12" style="edgeStyle=orthogonalEdgeStyle;rounded=0;orthogonalLoop=1;jettySize=auto;html=1;exitX=0;exitY=0.5;exitDx=0;exitDy=0;" edge="1" parent="1" source="gH9Sfeu3jcGFy_Y4X0_w-1" target="gH9Sfeu3jcGFy_Y4X0_w-11">
          <mxGeometry relative="1" as="geometry" />
        </mxCell>
        <mxCell id="gH9Sfeu3jcGFy_Y4X0_w-1" value="&lt;span style=&quot;font-size: 32px;&quot;&gt;klub&lt;br&gt;&lt;/span&gt;" style="rounded=0;whiteSpace=wrap;html=1;" vertex="1" parent="1">
          <mxGeometry x="180" y="210" width="180" height="80" as="geometry" />
        </mxCell>
        <mxCell id="gH9Sfeu3jcGFy_Y4X0_w-2" value="&lt;font style=&quot;font-size: 32px;&quot;&gt;naziv&lt;br&gt;&lt;/font&gt;" style="ellipse;whiteSpace=wrap;html=1;align=center;" vertex="1" parent="1">
          <mxGeometry x="185" y="70" width="170" height="70" as="geometry" />
        </mxCell>
        <mxCell id="gH9Sfeu3jcGFy_Y4X0_w-9" value="&lt;span style=&quot;font-size: 32px;&quot;&gt;id&lt;/span&gt;" style="ellipse;whiteSpace=wrap;html=1;" vertex="1" parent="1">
          <mxGeometry x="460" y="210" width="120" height="80" as="geometry" />
        </mxCell>
        <mxCell id="gH9Sfeu3jcGFy_Y4X0_w-16" style="edgeStyle=orthogonalEdgeStyle;rounded=0;orthogonalLoop=1;jettySize=auto;html=1;exitX=0;exitY=0.5;exitDx=0;exitDy=0;" edge="1" parent="1" source="gH9Sfeu3jcGFy_Y4X0_w-11" target="gH9Sfeu3jcGFy_Y4X0_w-13">
          <mxGeometry relative="1" as="geometry" />
        </mxCell>
        <mxCell id="gH9Sfeu3jcGFy_Y4X0_w-11" value="&lt;font style=&quot;font-size: 32px;&quot;&gt;liga&lt;/font&gt;" style="ellipse;whiteSpace=wrap;html=1;" vertex="1" parent="1">
          <mxGeometry x="-40" y="210" width="120" height="80" as="geometry" />
        </mxCell>
        <mxCell id="gH9Sfeu3jcGFy_Y4X0_w-13" value="&lt;span style=&quot;font-size: 32px;&quot;&gt;id&lt;/span&gt;" style="ellipse;whiteSpace=wrap;html=1;" vertex="1" parent="1">
          <mxGeometry x="-220" y="130" width="120" height="80" as="geometry" />
        </mxCell>
        <mxCell id="gH9Sfeu3jcGFy_Y4X0_w-14" value="&lt;span style=&quot;font-size: 32px;&quot;&gt;id&lt;/span&gt;" style="ellipse;whiteSpace=wrap;html=1;" vertex="1" parent="1">
          <mxGeometry x="-440" y="260" width="120" height="80" as="geometry" />
        </mxCell>
        <mxCell id="gH9Sfeu3jcGFy_Y4X0_w-15" value="&lt;span style=&quot;font-size: 32px;&quot;&gt;id&lt;/span&gt;" style="ellipse;whiteSpace=wrap;html=1;" vertex="1" parent="1">
          <mxGeometry x="-460" y="50" width="120" height="80" as="geometry" />
        </mxCell>
      </root>
    </mxGraphModel>
  </diagram>
</mxfile>
